<svg xmlns="http://www.w3.org/2000/svg" viewBox="0 0 39.8 53.65"><defs><style>.cls-1{fill:#fff;}.cls-2{fill:#ffca06;}</style></defs><title>UCF ICON</title><g id="Layer_2" data-name="Layer 2"><g id="Layer_1-2" data-name="Layer 1"><rect width="39.8" height="53.65"/><path class="cls-1" d="M7.62,42.91V38.13H9.47v4.73c0,1.37.68,2.07,1.8,2.07s1.81-.68,1.81-2V38.13h1.84v4.72c0,2.54-1.42,3.78-3.67,3.78s-3.63-1.25-3.63-3.72"/><path class="cls-1" d="M16.79,42.34v0A4.25,4.25,0,0,1,21.15,38a4.36,4.36,0,0,1,3.31,1.29l-1.18,1.36a3.06,3.06,0,0,0-2.14-1,2.48,2.48,0,0,0-2.43,2.61v0A2.5,2.5,0,0,0,21.14,45a3,3,0,0,0,2.2-1l1.18,1.19a4.3,4.3,0,0,1-3.44,1.49,4.22,4.22,0,0,1-4.29-4.3"/><polygon class="cls-1" points="26.35 38.13 32.72 38.13 32.72 39.8 28.19 39.8 28.19 41.58 32.18 41.58 32.18 43.26 28.19 43.26 28.19 46.5 26.35 46.5 26.35 38.13"/><path class="cls-2" d="M24.91,29a4.47,4.47,0,0,0-.48-2c-.59-1.2-2.5-2.08-4.35-2.93a26.87,26.87,0,0,1-2.52-1.26c-3.43-2.08-4.56-4.62-4.91-6.39A8.13,8.13,0,0,1,12.51,15a6.79,6.79,0,0,1,1.26-4C17,6.6,22.5,7.1,24.11,7.36a8.65,8.65,0,0,0-7.36,4.49,4.9,4.9,0,0,0-.56,2.22c0,3,3.1,5.66,5.59,7.77.86.73,1.67,1.42,2.28,2.05a5.29,5.29,0,0,1,1.67,3.66,5.38,5.38,0,0,1-1.24,3.25A3.63,3.63,0,0,0,24.91,29"/><path class="cls-2" d="M9.7,27.27A13.73,13.73,0,0,0,15,29.78a15.51,15.51,0,0,0,4,.48,5.82,5.82,0,0,1,2.31.32,1.17,1.17,0,0,1,.66,1l0,.22C21.8,32.34,21,33,19.31,33,14.16,33,11,29.14,9.7,27.27"/><path class="cls-2" d="M19,18.35s2.14-3.58,4.34-4.16a4.93,4.93,0,0,1,4.16.45l.73-1.47,1.14,5.61s.2.51-.74,1.15-1,.51-1,.51-.6-2.29-1.81-2.55-1.2,1.34-1.14,1.85,1.1,2.6,2.82,1.72a8,8,0,0,0,2.74-2.17s.27-.63.54-.44S32,20.12,32,20.12l-.4,6.7s0,.83-1.14,1.15-1.14.25-1.14.25l.61-2h.73l-.2-4.72a20.35,20.35,0,0,1-1.81,5.11A20.06,20.06,0,0,1,25,31a5.65,5.65,0,0,0,1.21-3.81c-.15-1.39-.75-3-3.75-5.47A41,41,0,0,1,19,18.35"/><path class="cls-2" d="M22.48,31.4a1.28,1.28,0,0,0-.13-.59c-.34-.64-1.26-1-2.73-1-2.67-.1-9.09-.76-10.89-5a11.24,11.24,0,0,1-.87-4.42,13.17,13.17,0,0,1,.64-4c0,.22-.05.62-.05.62a9,9,0,0,0,3.1,7,18.69,18.69,0,0,0,7.61,3.32c2.26.54,3.56,1.35,3.84,2.41l.06.45a2.77,2.77,0,0,1-.67,1.65,2.88,2.88,0,0,0,.09-.4"/><path class="cls-2" d="M23.67,30.2a2.3,2.3,0,0,0-.2-1c-.49-1.15-1.85-2-4-2.46-5.78-1.26-9.06-3.57-10-7.06a9,9,0,0,1-.34-2.42c0-4.79,4.21-7.37,5.64-8.1A8.63,8.63,0,0,0,12,13.93a8,8,0,0,0-.08,1.19c0,2.85,1.47,5.35,4.46,7.62a18.7,18.7,0,0,0,3.45,1.84c1.77.8,3.44,1.56,4.1,2.66a3,3,0,0,1,.45,1.58,3.83,3.83,0,0,1-.89,2.32,2.68,2.68,0,0,0,.17-.94"/><path class="cls-2" d="M23.5,10.55a1.89,1.89,0,0,1-1.8-1.81,1.89,1.89,0,0,1-1.81,1.81,1.89,1.89,0,0,1,1.81,1.8,1.89,1.89,0,0,1,1.8-1.8"/></g></g></svg>