<svg xmlns="http://www.w3.org/2000/svg" viewBox="0 0 305.33 73.02"><defs><style>.cls-1{fill:#fff;}.cls-2{fill:#ffca06;}</style></defs><title>UCF LOGO</title><g id="Layer_2" data-name="Layer 2"><g id="Layer_1-2" data-name="Layer 1"><rect width="54.17" height="73.02"/><path class="cls-1" d="M10.38,58.4V51.89h2.5v6.45c0,1.85.93,2.81,2.46,2.81s2.46-.92,2.46-2.73V51.89h2.51v6.43c0,3.45-1.94,5.15-5,5.15s-4.93-1.71-4.93-5.07"/><path class="cls-1" d="M22.85,57.62v0a5.79,5.79,0,0,1,5.94-5.89,5.9,5.9,0,0,1,4.5,1.75l-1.6,1.84A4.25,4.25,0,0,0,28.77,54a3.37,3.37,0,0,0-3.3,3.55v0a3.38,3.38,0,0,0,3.3,3.58,4.13,4.13,0,0,0,3-1.33l1.6,1.61a5.86,5.86,0,0,1-4.68,2,5.75,5.75,0,0,1-5.84-5.86"/><polygon class="cls-1" points="35.86 51.89 44.53 51.89 44.53 54.17 38.37 54.17 38.37 56.6 43.8 56.6 43.8 58.88 38.37 58.88 38.37 63.29 35.86 63.29 35.86 51.89"/><path class="cls-2" d="M33.91,39.53a6,6,0,0,0-.66-2.74c-.81-1.64-3.41-2.83-5.92-4a35.35,35.35,0,0,1-3.43-1.71c-4.67-2.83-6.21-6.3-6.68-8.71a10.17,10.17,0,0,1-.19-2,9.18,9.18,0,0,1,1.72-5.5C23.15,9,30.63,9.66,32.81,10c-2.16.1-7.47,1.05-10,6.11a6.75,6.75,0,0,0-.75,3c0,4.14,4.21,7.71,7.6,10.58,1.17,1,2.28,1.92,3.11,2.79a7.22,7.22,0,0,1,2.27,5,7.34,7.34,0,0,1-1.68,4.42,5,5,0,0,0,.57-2.39"/><path class="cls-2" d="M13.2,37.12a18.92,18.92,0,0,0,7.17,3.41,21.46,21.46,0,0,0,5.49.66,7.46,7.46,0,0,1,3.14.44A1.56,1.56,0,0,1,29.9,43l0,.29c-.19.77-1.24,1.6-3.58,1.62-7,.07-11.38-5.21-13.08-7.75"/><path class="cls-2" d="M25.84,25s2.91-4.88,5.92-5.67c3.65-.95,5.65.61,5.65.61l1-2L40,25.57s.28.69-1,1.56-1.37.69-1.37.69-.82-3.12-2.46-3.47-1.64,1.82-1.55,2.52,1.49,3.54,3.83,2.34a11.05,11.05,0,0,0,3.74-2.95s.36-.87.73-.61,1.73,1.74,1.73,1.74l-.55,9.11s0,1.13-1.55,1.57-1.55.34-1.55.34l.82-2.78h1l-.28-6.42a27.84,27.84,0,0,1-2.46,6.95,27.56,27.56,0,0,1-5,6A7.7,7.7,0,0,0,35.69,37c-.21-1.89-1-4.07-5.11-7.44A56.29,56.29,0,0,1,25.84,25"/><path class="cls-2" d="M30.6,42.73a1.59,1.59,0,0,0-.19-.79c-.45-.88-1.7-1.36-3.7-1.43-3.64-.12-12.38-1-14.83-6.81a15.45,15.45,0,0,1-1.18-6,18,18,0,0,1,.87-5.5c0,.3-.07.84-.07.84a12.28,12.28,0,0,0,4.22,9.59c2.32,1.93,5.81,3.45,10.36,4.53,3.08.72,4.84,1.82,5.23,3.27l.08.61a3.79,3.79,0,0,1-.91,2.24,4.89,4.89,0,0,0,.12-.54"/><path class="cls-2" d="M32.22,41.11A3.28,3.28,0,0,0,32,39.79c-.67-1.56-2.52-2.68-5.52-3.34-7.87-1.71-12.32-4.86-13.63-9.61a12.47,12.47,0,0,1-.46-3.3c0-6.52,5.74-10,7.69-11A11.6,11.6,0,0,0,16.35,19a11.49,11.49,0,0,0-.12,1.63c0,3.88,2,7.28,6.08,10.36A25.11,25.11,0,0,0,27,33.46c2.41,1.09,4.68,2.12,5.57,3.62a4.1,4.1,0,0,1,.62,2.14A5.25,5.25,0,0,1,32,42.38a3.74,3.74,0,0,0,.23-1.27"/><path class="cls-2" d="M32,14.36a2.57,2.57,0,0,1-2.46-2.46,2.57,2.57,0,0,1-2.45,2.46,2.57,2.57,0,0,1,2.45,2.46A2.57,2.57,0,0,1,32,14.36"/><path d="M73.45,33.13V25.29h2.4V33c0,2.53,1.3,3.87,3.44,3.87s3.42-1.27,3.42-3.78V25.29h2.4V33c0,4.06-2.3,6.1-5.86,6.1s-5.8-2-5.8-6"/><polygon points="91.32 25.29 93.53 25.29 100.83 34.71 100.83 25.29 103.18 25.29 103.18 38.91 101.18 38.91 93.67 29.22 93.67 38.91 91.32 38.91 91.32 25.29"/><rect x="109.74" y="25.29" width="2.39" height="13.62"/><polygon points="117.53 25.29 120.17 25.29 124.28 35.76 128.36 25.29 130.95 25.29 125.31 39.01 123.19 39.01 117.53 25.29"/><polygon points="136.21 25.29 146.3 25.29 146.3 27.43 138.6 27.43 138.6 30.97 145.43 30.97 145.43 33.12 138.6 33.12 138.6 36.77 146.4 36.77 146.4 38.91 136.21 38.91 136.21 25.29"/><path d="M152.16,25.29h6.07a5.47,5.47,0,0,1,3.93,1.37,4.11,4.11,0,0,1,1.13,2.93v0a4.09,4.09,0,0,1-3.23,4.13l3.68,5.15H160.9l-3.35-4.75h-3v4.75h-2.4Zm5.9,6.75c1.71,0,2.8-.89,2.8-2.27v0c0-1.46-1.05-2.26-2.82-2.26h-3.48V32Z"/><path d="M168.23,36.93l1.45-1.72A6.29,6.29,0,0,0,174,37c1.48,0,2.42-.71,2.42-1.72v0c0-1-.55-1.49-3.08-2.08-2.9-.7-4.53-1.55-4.53-4.06v0c0-2.34,1.94-3.95,4.65-3.95a7.54,7.54,0,0,1,4.94,1.71l-1.28,1.81a6.24,6.24,0,0,0-3.7-1.4c-1.4,0-2.22.72-2.22,1.61v0c0,1.05.63,1.52,3.25,2.14,2.88.7,4.36,1.73,4.36,4v0c0,2.55-2,4.07-4.86,4.07a8.4,8.4,0,0,1-5.69-2.18"/><rect x="184.66" y="25.29" width="2.39" height="13.62"/><polygon points="196.95 27.51 192.63 27.51 192.63 25.29 203.69 25.29 203.69 27.51 199.37 27.51 199.37 38.91 196.95 38.91 196.95 27.51"/><polygon points="213.14 33.54 207.74 25.29 210.58 25.29 214.37 31.3 218.22 25.29 220.96 25.29 215.56 33.48 215.56 38.91 213.14 38.91 213.14 33.54"/><path d="M234.14,32.14v0a7.12,7.12,0,0,1,14.24,0v0a7.12,7.12,0,0,1-14.24,0m11.73,0v0a4.67,4.67,0,0,0-4.63-4.84,4.6,4.6,0,0,0-4.59,4.8v0a4.65,4.65,0,0,0,4.63,4.83,4.59,4.59,0,0,0,4.59-4.79"/><polygon points="254.2 25.29 264.33 25.29 264.33 27.47 256.59 27.47 256.59 31.19 263.46 31.19 263.46 33.37 256.59 33.37 256.59 38.91 254.2 38.91 254.2 25.29"/><path d="M73.07,56.64v0a6.88,6.88,0,0,1,7-7,7.09,7.09,0,0,1,5.33,2.12l-1.54,1.77a5.43,5.43,0,0,0-3.81-1.69,4.58,4.58,0,0,0-4.49,4.8v0a4.59,4.59,0,0,0,4.49,4.83A5.36,5.36,0,0,0,84,59.68l1.54,1.55A7,7,0,0,1,80,63.64a6.84,6.84,0,0,1-6.92-7"/><polygon points="90.95 49.79 101.04 49.79 101.04 51.93 93.34 51.93 93.34 55.47 100.17 55.47 100.17 57.61 93.34 57.61 93.34 61.27 101.14 61.27 101.14 63.41 90.95 63.41 90.95 49.79"/><polygon points="106.9 49.79 109.12 49.79 116.42 59.21 116.42 49.79 118.77 49.79 118.77 63.41 116.77 63.41 109.26 53.72 109.26 63.41 106.9 63.41 106.9 49.79"/><polygon points="128.54 52.01 124.22 52.01 124.22 49.79 135.27 49.79 135.27 52.01 130.95 52.01 130.95 63.41 128.54 63.41 128.54 52.01"/><path d="M140.72,49.79h6.07a5.52,5.52,0,0,1,3.93,1.36,4.14,4.14,0,0,1,1.13,2.94v0a4.08,4.08,0,0,1-3.23,4.12l3.68,5.16h-2.84l-3.35-4.75h-3v4.75h-2.39Zm5.9,6.75c1.71,0,2.8-.89,2.8-2.27v0c0-1.46-1-2.26-2.82-2.26h-3.49v4.57Z"/><path d="M162.53,49.69h2.22l6,13.72h-2.53l-1.38-3.29h-6.44L159,63.41h-2.45ZM166,58l-2.36-5.45L161.27,58Z"/><polygon points="176 49.79 178.39 49.79 178.39 61.23 185.55 61.23 185.55 63.41 176 63.41 176 49.79"/><polygon points="199.72 49.79 209.85 49.79 209.85 51.97 202.11 51.97 202.11 55.69 208.98 55.69 208.98 57.87 202.11 57.87 202.11 63.41 199.72 63.41 199.72 49.79"/><polygon points="215.4 49.79 217.79 49.79 217.79 61.23 224.95 61.23 224.95 63.41 215.4 63.41 215.4 49.79"/><path d="M229,56.64v0a7.12,7.12,0,0,1,14.24,0v0a7.12,7.12,0,0,1-14.24,0m11.73,0v0a4.66,4.66,0,0,0-4.63-4.84,4.6,4.6,0,0,0-4.59,4.8v0a4.65,4.65,0,0,0,4.63,4.83,4.58,4.58,0,0,0,4.59-4.79"/><path d="M249,49.79h6.07A5.49,5.49,0,0,1,259,51.15a4.14,4.14,0,0,1,1.13,2.94v0a4.08,4.08,0,0,1-3.23,4.12l3.68,5.16h-2.84l-3.35-4.75h-3v4.75H249Zm5.9,6.75c1.71,0,2.8-.89,2.8-2.27v0c0-1.46-1.05-2.26-2.82-2.26h-3.48v4.57Z"/><rect x="266.17" y="49.79" width="2.39" height="13.62"/><path d="M275.12,49.79h5.07c4.28,0,7.24,2.94,7.24,6.77v0c0,3.83-3,6.81-7.24,6.81h-5.07ZM277.51,52v9.26h2.68a4.44,4.44,0,0,0,4.73-4.59v0A4.47,4.47,0,0,0,280.19,52Z"/><path d="M297.12,49.69h2.22l6,13.72H302.8l-1.38-3.29H295l-1.4,3.29h-2.45ZM300.55,58l-2.36-5.45L295.86,58Z"/></g></g></svg>